<?xml version="1.0" encoding="UTF-8"?>
<svg version="1.1" xmlns="http://www.w3.org/2000/svg" width="145" height="145">
<path d="M0 0 C5.03035077 3.55805298 8.23719896 7.08526038 10.5625 12.8125 C10.96621644 15.79981234 10.94267563 18.74481404 10.90307617 21.75537109 C10.90373329 23.07341736 10.90373329 23.07341736 10.90440369 24.41809082 C10.90232225 27.30760312 10.87902164 30.1965272 10.85546875 33.0859375 C10.8498705 35.0951811 10.84560149 37.10442881 10.84260559 39.11367798 C10.83117485 44.39092398 10.8017228 49.66792059 10.76849365 54.94506836 C10.73234606 61.2827082 10.71862319 67.62043162 10.70113373 73.95814514 C10.67208452 83.57643665 10.61458476 93.19418141 10.5625 102.8125 C32.0125 102.8125 53.4625 102.8125 75.5625 102.8125 C75.51609375 96.4084375 75.4696875 90.004375 75.421875 83.40625 C75.40142886 79.34112955 75.38217252 75.2760728 75.3671875 71.2109375 C75.3433068 64.76321186 75.3151023 58.31571416 75.26074219 51.86816406 C75.21717539 46.6680502 75.19333984 41.46818089 75.18299103 36.26789856 C75.17561912 34.28721774 75.16122349 32.3065498 75.13957977 30.32597351 C75.11040182 27.54449893 75.10655001 24.76402569 75.10839844 21.98242188 C75.09401733 21.16961761 75.07963623 20.35681335 75.06481934 19.51937866 C75.11068723 13.11072683 76.79294801 7.61778814 81.37890625 2.97265625 C81.95511719 2.61042969 82.53132813 2.24820312 83.125 1.875 C83.70378906 1.49472656 84.28257813 1.11445312 84.87890625 0.72265625 C90.06844568 -2.08282562 95.83802866 -1.71465625 101.5625 -1.1875 C106.98133138 0.52114053 110.35589456 4.32325238 113.5625 8.8125 C115.16521682 12.2278449 115.81465408 14.92575483 115.82992554 18.68782043 C115.84272049 20.11960884 115.84272049 20.11960884 115.85577393 21.58032227 C115.85441437 23.13348145 115.85441437 23.13348145 115.85302734 24.71801758 C115.85974457 25.81780441 115.86646179 26.91759125 115.87338257 28.05070496 C115.89237924 31.68619303 115.8962877 35.32149663 115.8984375 38.95703125 C115.90486446 41.48662899 115.91159274 44.01622597 115.91860962 46.54582214 C115.93058672 51.84933495 115.93437572 57.15277912 115.93310547 62.45629883 C115.93190496 68.57244844 115.95299215 74.68824466 115.9845928 80.8043049 C116.01397481 86.70268834 116.02107944 92.60096465 116.01988602 98.49942589 C116.02224349 101.00201548 116.03107515 103.5046078 116.04655075 106.00715065 C116.06619053 109.51132981 116.0603795 113.01460447 116.04833984 116.51879883 C116.05957886 117.54816559 116.07081787 118.57753235 116.08239746 119.63809204 C116.01918693 126.89413689 114.55409725 132.20026836 109.88671875 137.8359375 C109.34660156 138.28195313 108.80648437 138.72796875 108.25 139.1875 C107.45142578 139.87972656 107.45142578 139.87972656 106.63671875 140.5859375 C100.44572629 144.24690102 93.88254994 144.10479919 86.90478516 144.0871582 C85.85508041 144.09226913 84.80537567 144.09738007 83.72386169 144.10264587 C80.26637004 144.11650457 76.80907857 144.11558782 73.3515625 144.11328125 C70.93932013 144.1171703 68.52707845 144.1215054 66.11483765 144.12626648 C61.06286396 144.13372076 56.01096017 144.13344318 50.95898438 144.12817383 C44.49737915 144.12238122 38.03606076 144.13930932 31.57450294 144.1625185 C26.59353981 144.1772781 21.6126454 144.17812447 16.63166428 144.17500877 C14.24992683 144.17552089 11.86818543 144.18073801 9.48646927 144.19082069 C6.15046001 144.20321024 2.81500485 144.1963778 -0.52099609 144.18481445 C-1.98480965 144.19628006 -1.98480965 144.19628006 -3.47819519 144.20797729 C-10.88002421 144.15150697 -17.53288739 143.27510634 -23.3125 138.375 C-24.01375 137.529375 -24.715 136.68375 -25.4375 135.8125 C-26.015 135.131875 -26.5925 134.45125 -27.1875 133.75 C-29.38477785 130.34421933 -29.56407081 127.04202675 -29.58467102 123.05743408 C-29.59182632 122.10428314 -29.59898163 121.1511322 -29.60635376 120.1690979 C-29.61038712 118.61054581 -29.61038712 118.61054581 -29.61450195 117.02050781 C-29.62107315 115.920867 -29.62764435 114.8212262 -29.63441467 113.68826294 C-29.65413332 110.04738293 -29.66580676 106.40654413 -29.67578125 102.765625 C-29.67985678 101.52156639 -29.6839323 100.27750778 -29.68813133 98.99575043 C-29.7068361 93.09041884 -29.72140363 87.18510031 -29.7297433 81.27974629 C-29.73950965 74.47769852 -29.76581845 67.67597669 -29.80624419 60.8740437 C-29.84011663 54.97087349 -29.85189429 49.06778255 -29.85594749 43.16451263 C-29.86081619 40.65912413 -29.87243813 38.15373919 -29.89098549 35.64841461 C-29.91535014 32.13936974 -29.91441629 28.631174 -29.9074707 25.12207031 C-29.92028076 24.09113251 -29.93309082 23.0601947 -29.94628906 21.99801636 C-29.89393889 14.72707498 -28.49596111 9.27875593 -23.62109375 3.75390625 C-23.04488281 3.29886719 -22.46867187 2.84382812 -21.875 2.375 C-21.29621094 1.90191406 -20.71742187 1.42882812 -20.12109375 0.94140625 C-14.57102366 -2.78010246 -6.04117237 -2.08695045 0 0 Z " fill="#FEFE00" transform="translate(29.4375,1.1875)"/>
<path d="M0 0 C5.89281441 3.1350293 9.723686 8.05530345 11.83203125 14.31640625 C12.08930016 16.68967915 12.08930016 16.68967915 12.09945679 19.19172668 C12.10798676 20.14625229 12.11651672 21.10077789 12.12530518 22.08422852 C12.1243988 23.11966797 12.12349243 24.15510742 12.12255859 25.22192383 C12.12927582 26.32171066 12.13599304 27.4214975 12.14291382 28.55461121 C12.16191049 32.19009928 12.16581895 35.82540288 12.16796875 39.4609375 C12.17439571 41.99053524 12.18112399 44.52013222 12.18814087 47.04972839 C12.20011797 52.3532412 12.20390697 57.65668537 12.20263672 62.96020508 C12.20143621 69.07635469 12.2225234 75.19215091 12.25412405 81.30821115 C12.28350606 87.20659459 12.29061069 93.1048709 12.28941727 99.00333214 C12.29177474 101.50592173 12.3006064 104.00851405 12.316082 106.5110569 C12.33572178 110.01523606 12.32991075 113.51851072 12.31787109 117.02270508 C12.32911011 118.05207184 12.34034912 119.0814386 12.35192871 120.14199829 C12.28824233 127.45266718 10.89631092 132.53712799 6.19140625 138.33984375 C1.35643629 142.40027969 -2.98075524 144.55147789 -9.39453125 144.19140625 C-15.23541513 143.22796149 -20.18453906 140.73485717 -24.16796875 136.31640625 C-28.35935032 130.04319156 -28.74343225 124.37067232 -28.68554688 116.97851562 C-28.69255615 115.86853714 -28.69956543 114.75855865 -28.70678711 113.61494446 C-28.72432431 109.96309036 -28.71275872 106.31201759 -28.69921875 102.66015625 C-28.70191487 100.11242525 -28.70579829 97.56469526 -28.71081543 95.01696777 C-28.71670474 89.68421659 -28.70855001 84.3517428 -28.68945312 79.01904297 C-28.66768739 72.87041904 -28.67474001 66.72232582 -28.69675875 60.57371473 C-28.71715924 54.63738089 -28.71492206 48.70121065 -28.70323181 42.7648468 C-28.70056871 40.24831568 -28.70381957 37.73177097 -28.71315002 35.21525574 C-28.72333977 31.69457427 -28.70777875 28.17490333 -28.68554688 24.65429688 C-28.6936438 23.62029251 -28.70174072 22.58628815 -28.71008301 21.52095032 C-28.62743503 14.43488255 -27.53874243 8.73067378 -22.3515625 3.4765625 C-21.77535156 3.11433594 -21.19914062 2.75210937 -20.60546875 2.37890625 C-19.73728516 1.80849609 -19.73728516 1.80849609 -18.8515625 1.2265625 C-13.39295829 -1.72437667 -5.86376369 -1.8489345 0 0 Z " fill="#00FE00" transform="translate(133.16796875,0.68359375)"/>
<path d="M0 0 C5.02961459 3.55753227 8.24075729 7.08434924 10.5625 12.8125 C10.96706004 15.83019902 10.94262244 18.8063702 10.90307617 21.84716797 C10.90373329 23.17984459 10.90373329 23.17984459 10.90440369 24.53944397 C10.90232202 27.46141926 10.87902032 30.38281306 10.85546875 33.3046875 C10.84987058 35.33635139 10.84560153 37.36801933 10.84260559 39.39968872 C10.83117422 44.73611718 10.80172162 50.07229905 10.76849365 55.40863037 C10.73775601 60.85832382 10.72409235 66.30805727 10.70898438 71.7578125 C10.67685038 82.44281642 10.62567459 93.12763767 10.5625 103.8125 C9.5269397 103.83437378 9.5269397 103.83437378 8.47045898 103.85668945 C5.3131034 103.93160617 2.15675499 104.02812217 -1 104.125 C-2.08603516 104.14755859 -3.17207031 104.17011719 -4.29101562 104.19335938 C-11.88803472 104.44736305 -17.21909281 105.10611213 -23.1875 110.125 C-25.49772019 112.88442967 -26.98692902 115.52962882 -28.4375 118.8125 C-28.7675 118.8125 -29.0975 118.8125 -29.4375 118.8125 C-29.53026192 105.2604249 -29.60129678 91.70842558 -29.64474869 78.15609741 C-29.66560553 71.86290252 -29.6938891 65.56992517 -29.73925781 59.27685547 C-29.78278241 53.20142484 -29.80665142 47.1262032 -29.81700897 41.05062866 C-29.82438838 38.7350231 -29.83879865 36.41942872 -29.86042023 34.10391235 C-29.88954125 30.85548359 -29.89345225 27.60791371 -29.89160156 24.359375 C-29.90598267 23.40630966 -29.92036377 22.45324432 -29.93518066 21.47129822 C-29.89194446 14.43793178 -28.32843499 9.08889299 -23.62109375 3.75390625 C-23.04488281 3.29886719 -22.46867187 2.84382812 -21.875 2.375 C-21.29621094 1.90191406 -20.71742187 1.42882812 -20.12109375 0.94140625 C-14.57102366 -2.78010246 -6.04117237 -2.08695045 0 0 Z " fill="#FE6600" transform="translate(29.4375,1.1875)"/>
</svg>
